<svg xmlns="http://www.w3.org/2000/svg" width="152" height="48" viewBox="0 0 152 48">
    <g fill="none" fill-rule="evenodd">
        <rect width="151" height="47" x=".5" y=".5" fill="#000" stroke="#A6A6A6" rx="6"/>
        <path fill="#FFF" d="M52.209 15.727c1.001 0 1.531-.403 1.531-1.155 0-.742-.55-1.13-1.595-1.13h-1.542v2.285h1.606zm-1.606-3.155h1.318c.982 0 1.493-.36 1.493-1.032 0-.655-.481-1.038-1.305-1.038h-1.506v2.07zm-1.112 4.09V9.567h2.876c1.344 0 2.153.68 2.153 1.77a1.56 1.56 0 0 1-1.255 1.524v.083a1.683 1.683 0 0 1 1.611 1.706c0 1.248-.917 2.01-2.444 2.01h-2.941zm9.997-1.972v-.447l-1.318.083c-.743.05-1.081.3-1.081.772 0 .482.422.762 1.002.762a1.27 1.27 0 0 0 1.394-1.128l.003-.042zm-3.47.457c0-.963.723-1.519 2.008-1.598l1.462-.084v-.462c0-.565-.377-.883-1.105-.883-.595 0-1.007.215-1.125.594h-1.031c.108-.92.981-1.509 2.206-1.509 1.353 0 2.117.668 2.117 1.798v3.658h-1.027v-.752h-.084a1.82 1.82 0 0 1-1.622.84 1.628 1.628 0 0 1-1.799-1.602zm6.061-5.422a.687.687 0 0 1 .648-.724.689.689 0 0 1 .73.643.687.687 0 0 1-.648.724l-.04.002a.656.656 0 0 1-.69-.618v-.027zm.157 1.583h1.062v5.353h-1.062v-5.353zm4.72 3.455l-1.181 1.898h-1.17l1.791-2.664-1.805-2.689h1.244l1.16 1.888h.085l1.15-1.888h1.185l-1.78 2.645 1.8 2.708h-1.224l-1.176-1.898h-.079zm6.89-.073v-.447l-1.319.083c-.744.05-1.081.3-1.081.772 0 .482.421.762 1.001.762a1.27 1.27 0 0 0 1.395-1.128l.004-.042zm-3.471.457c0-.963.724-1.519 2.008-1.598l1.463-.084v-.462c0-.565-.377-.883-1.106-.883-.594 0-1.007.215-1.126.594h-1.031c.109-.92.981-1.509 2.206-1.509 1.354 0 2.117.668 2.117 1.798v3.658h-1.025v-.752h-.085a1.82 1.82 0 0 1-1.621.84 1.627 1.627 0 0 1-1.8-1.602zm6.2-3.839h1.026v.821h.079a1.466 1.466 0 0 1 1.458-.91c.16-.002.319.013.475.044v1.043a2.958 2.958 0 0 0-.594-.063 1.26 1.26 0 0 0-1.378 1.257v3.161h-1.066v-5.353zm7.145 0h1.026v.851h.08a1.619 1.619 0 0 1 1.611-.954 1.75 1.75 0 0 1 1.869 1.991v3.465H87.24v-3.2c0-.86-.377-1.288-1.165-1.288a1.235 1.235 0 0 0-1.289 1.357v3.131H83.72v-5.353zm9.397 3.382v-.447l-1.318.083c-.744.05-1.081.3-1.081.772 0 .482.422.762 1.001.762a1.27 1.27 0 0 0 1.398-1.17zm-3.47.457c0-.963.723-1.519 2.007-1.598l1.463-.084v-.462c0-.565-.377-.883-1.105-.883-.595 0-1.007.215-1.125.594h-1.032c.109-.92.981-1.509 2.206-1.509 1.353 0 2.117.668 2.117 1.798v3.658h-1.026v-.752h-.084c-.348.55-.968.87-1.622.84a1.627 1.627 0 0 1-1.799-1.602zM52.355 29.61h4.499l-2.218-6.476h-.063l-2.218 6.476zm5.087 1.841h-5.675l-1.363 3.99H48l5.376-14.762h2.497l5.376 14.761h-2.445l-1.362-3.989zm13.126-1.39c0-2.18-1.135-3.612-2.868-3.612-1.703 0-2.848 1.462-2.848 3.611 0 2.168 1.145 3.62 2.848 3.62 1.733 0 2.868-1.422 2.868-3.62zm2.29 0c0 3.343-1.804 5.492-4.53 5.492a3.688 3.688 0 0 1-3.415-1.883h-.052V39h-2.228V24.678h2.157v1.79h.041a3.856 3.856 0 0 1 3.456-1.902c2.756 0 4.571 2.16 4.571 5.494zm9.659 0c0-2.18-1.136-3.612-2.87-3.612-1.702 0-2.847 1.462-2.847 3.611 0 2.168 1.145 3.62 2.847 3.62 1.734 0 2.87-1.422 2.87-3.62zm2.29 0c0 3.343-1.806 5.492-4.531 5.492a3.688 3.688 0 0 1-3.415-1.883h-.051V39h-2.229V24.678h2.157v1.79h.041a3.856 3.856 0 0 1 3.456-1.902c2.756 0 4.572 2.16 4.572 5.494zm7.897 1.267c.165 1.463 1.6 2.424 3.56 2.424 1.878 0 3.229-.96 3.229-2.28 0-1.146-.815-1.833-2.745-2.303l-1.93-.46c-2.734-.655-4.003-1.922-4.003-3.98 0-2.547 2.239-4.296 5.418-4.296 3.146 0 5.303 1.75 5.375 4.296h-2.249c-.134-1.473-1.363-2.362-3.158-2.362s-3.023.9-3.023 2.21c0 1.043.785 1.657 2.704 2.127l1.64.4c3.055.715 4.325 1.932 4.325 4.091 0 2.761-2.22 4.491-5.748 4.491-3.303 0-5.533-1.688-5.676-4.358h2.281zm13.951-9.197v2.547h2.065v1.75h-2.065v5.933c0 .922.413 1.35 1.322 1.35.245-.004.489-.02.732-.05v1.74a6.18 6.18 0 0 1-1.237.1c-2.199 0-3.055-.818-3.055-2.905v-6.169h-1.579v-1.749h1.579v-2.547h2.238zm11.288 7.93c0-2.324-1.074-3.695-2.88-3.695-1.805 0-2.877 1.382-2.877 3.694 0 2.332 1.072 3.692 2.877 3.692 1.806 0 2.88-1.36 2.88-3.692zm-8.028 0c0-3.388 2.012-5.516 5.148-5.516 3.148 0 5.151 2.128 5.151 5.515 0 3.396-1.992 5.514-5.151 5.514-3.156 0-5.148-2.118-5.148-5.514zm12.136-5.383h2.125v1.832h.052a2.585 2.585 0 0 1 2.611-1.944c.257 0 .513.026.764.082v2.066a3.151 3.151 0 0 0-1.002-.133 2.236 2.236 0 0 0-2.322 2.476v6.383h-2.228V24.678zm8.293 4.39h5.427a2.597 2.597 0 0 0-2.664-2.733c-1.517-.008-2.754 1.205-2.763 2.71v.022zm7.532 3.211c-.3 1.954-2.219 3.295-4.675 3.295-3.157 0-5.118-2.098-5.118-5.463 0-3.376 1.971-5.566 5.024-5.566 3.004 0 4.893 2.046 4.893 5.31v.756h-7.667v.134c-.138 1.542 1.011 2.902 2.566 3.04.119.01.236.012.354.008a2.459 2.459 0 0 0 2.507-1.514h2.116zM30.345 14.488c1.1-1.253 1.642-2.862 1.51-4.488-1.68.167-3.23.929-4.345 2.134a5.771 5.771 0 0 0-1.55 4.322c1.702.016 3.32-.709 4.385-1.968m3.7 10.402c.03-2.181 1.236-4.196 3.193-5.339-1.24-1.682-3.245-2.709-5.407-2.774-2.274-.226-4.48 1.292-5.639 1.292-1.182 0-2.966-1.269-4.888-1.232-2.529.078-4.829 1.409-6.06 3.507-2.62 4.306-.666 10.633 1.844 14.114 1.256 1.704 2.724 3.607 4.644 3.54 1.88-.074 2.581-1.137 4.848-1.137 2.247 0 2.906 1.137 4.866 1.094 2.015-.031 3.286-1.712 4.498-3.432A13.836 13.836 0 0 0 38 30.547c-2.394-.961-3.952-3.189-3.955-5.657"/>
    </g>
</svg>
