<svg xmlns="http://www.w3.org/2000/svg" width="152" height="48" viewBox="0 0 152 48">
    <g fill="none" fill-rule="evenodd">
        <rect width="151" height="47" x=".5" y=".5" fill="#000" stroke="#A6A6A6" rx="6"/>
        <path fill="#FFF" d="M50.751 13.173c0 .762-.215 1.36-.64 1.778-.425.419-1.014.631-1.748.631h-1.069v-4.819h1.069c.734 0 1.322.214 1.748.636.425.42.64 1.018.64 1.774zm.144-2.492c-.632-.639-1.484-.963-2.532-.963h-2.146v6.909h2.146c1.048 0 1.9-.324 2.532-.963.631-.637.952-1.475.952-2.491s-.321-1.854-.952-2.492zm3.006 5.946h-1.076V9.718h1.076v6.909zm5.621-1.895c0 .341-.071.651-.212.92a1.751 1.751 0 0 1-.567.648 2.754 2.754 0 0 1-.74.354 2.73 2.73 0 0 1-.813.123c-.503 0-1.001-.167-1.479-.496-.483-.332-.803-.803-.951-1.401l-.024-.094.989-.401.03.123c.088.345.268.638.537.873.271.235.564.351.898.351.346 0 .644-.092.887-.273a.827.827 0 0 0 .349-.709c0-.34-.114-.593-.35-.774-.251-.194-.659-.377-1.215-.547-.603-.191-1.068-.443-1.383-.751-.325-.317-.49-.725-.49-1.214 0-.509.203-.957.603-1.333.398-.373.92-.562 1.553-.562.586 0 1.072.151 1.444.449.369.297.613.628.724.983l.03.097-.989.415-.034-.123c-.049-.188-.176-.367-.376-.53-.198-.164-.462-.247-.781-.247-.302 0-.561.085-.771.252-.207.162-.307.359-.307.599 0 .215.091.393.279.543.204.163.51.312.909.443.336.11.609.212.833.313.225.101.457.239.688.408.24.175.424.397.546.659.121.26.183.564.183.902zm3.402-1.858h-1.321v-2.111h1.321c.329 0 .585.107.782.328.199.224.295.462.295.728 0 .266-.096.504-.295.729-.197.22-.453.326-.782.326zm1.519-2.561a2.209 2.209 0 0 0-1.538-.595h-2.378v6.909h1.076v-2.708h1.302c.59 0 1.107-.2 1.538-.594a1.96 1.96 0 0 0 .654-1.506c0-.603-.22-1.111-.654-1.506zm4.621 5.419a2.343 2.343 0 0 1-1.728-.718c-.469-.479-.707-1.098-.707-1.841 0-.744.238-1.363.707-1.841a2.344 2.344 0 0 1 1.728-.719c.68 0 1.261.243 1.728.719.471.478.708 1.097.708 1.841 0 .743-.237 1.362-.708 1.841a2.337 2.337 0 0 1-1.728.718zm2.515-5.112c-.677-.697-1.522-1.051-2.515-1.051-1 0-1.846.352-2.518 1.047-.67.694-1.011 1.553-1.011 2.557s.341 1.863 1.011 2.557c.672.694 1.518 1.047 2.518 1.047.999 0 1.847-.353 2.519-1.047.671-.695 1.012-1.555 1.012-2.557 0-.997-.342-1.855-1.016-2.553zm7.344-.902v6.909h-1.065l-.032-.053-3.204-5.166.026.94v4.279h-1.076V9.718h1.214l3.087 4.968-.026-.941V9.718h1.076zM81.994 8L81.2 9.418h-.973L80.801 8h1.193zm-.693 8.627h-1.075V9.718h1.075v6.909zm6.524-6.909l-2.496 6.909H84.28l-2.419-6.909h1.185l1.762 5.249 1.833-5.249h1.184zm1.774 1.045v1.896h2.732v1.027h-2.732v1.896h3.029v1.045h-4.105V9.718h4.105v1.045h-3.029zm8.102 4.819v1.045h-3.955V9.718h1.075v5.864h2.88zm8.438-5.864v6.909h-1.065l-3.236-5.219.025.94v4.279h-1.075V9.718h1.213l3.087 4.968-.025-.941V9.718h1.076zm4.412 6.014a2.343 2.343 0 0 1-1.728-.718c-.468-.479-.707-1.098-.707-1.841 0-.744.239-1.363.707-1.841a2.344 2.344 0 0 1 1.728-.719 2.34 2.34 0 0 1 1.728.719c.47.478.708 1.097.708 1.841 0 .743-.238 1.362-.708 1.841a2.338 2.338 0 0 1-1.728.718zm2.514-5.112c-.675-.697-1.521-1.051-2.514-1.051-.999 0-1.846.352-2.518 1.047-.671.694-1.011 1.553-1.011 2.557s.34 1.863 1.011 2.557c.671.694 1.519 1.047 2.518 1.047 1 0 1.847-.353 2.518-1.047.672-.695 1.012-1.555 1.012-2.557 0-.997-.341-1.855-1.016-2.553zM53.431 27.722v2.01h4.788c-.143 1.13-.518 1.957-1.09 2.531-.697.7-1.787 1.472-3.698 1.472-2.947 0-5.251-2.387-5.251-5.349s2.304-5.35 5.251-5.35c1.59 0 2.751.628 3.609 1.436l1.411-1.418c-1.197-1.149-2.787-2.028-5.02-2.028-4.037 0-7.431 3.302-7.431 7.36 0 4.057 3.394 7.359 7.431 7.359 2.179 0 3.823-.718 5.109-2.064 1.322-1.328 1.733-3.196 1.733-4.703 0-.467-.036-.898-.107-1.256h-6.735zm12.284 6.157c-1.429 0-2.661-1.185-2.661-2.873 0-1.705 1.232-2.872 2.661-2.872 1.43 0 2.662 1.167 2.662 2.872 0 1.688-1.232 2.873-2.662 2.873zm0-7.612c-2.608 0-4.734 1.993-4.734 4.739 0 2.729 2.126 4.739 4.734 4.739s4.734-2.01 4.734-4.739c0-2.746-2.126-4.739-4.734-4.739zm10.327 7.612c-1.429 0-2.662-1.185-2.662-2.873 0-1.705 1.233-2.872 2.662-2.872 1.429 0 2.661 1.167 2.661 2.872 0 1.688-1.232 2.873-2.661 2.873zm0-7.612c-2.608 0-4.733 1.993-4.733 4.739 0 2.729 2.125 4.739 4.733 4.739 2.608 0 4.733-2.01 4.733-4.739 0-2.746-2.125-4.739-4.733-4.739zm10.3 7.612c-1.429 0-2.626-1.203-2.626-2.854 0-1.67 1.197-2.891 2.626-2.891 1.411 0 2.518 1.221 2.518 2.891 0 1.651-1.107 2.854-2.518 2.854zm2.376-7.324v.771h-.072c-.464-.556-1.358-1.059-2.483-1.059-2.358 0-4.519 2.083-4.519 4.758 0 2.656 2.161 4.72 4.519 4.72 1.125 0 2.019-.502 2.483-1.077h.072v.683c0 1.813-.965 2.782-2.52 2.782-1.267 0-2.053-.915-2.375-1.688l-1.804.754C82.537 38.456 83.912 40 86.198 40c2.43 0 4.485-1.436 4.485-4.936v-8.509h-1.965zm3.393 8.903h2.072v-13.93h-2.072v13.93zm7.592-7.359c.822 0 1.519.412 1.751 1.005l-4.216 1.758c-.053-1.831 1.411-2.763 2.465-2.763zm.161 5.78c-1.053 0-1.804-.485-2.287-1.436l6.307-2.622-.215-.538c-.393-1.059-1.59-3.016-4.037-3.016-2.43 0-4.448 1.921-4.448 4.739 0 2.657 2.001 4.739 4.68 4.739 2.161 0 3.412-1.328 3.93-2.099l-1.607-1.077c-.537.789-1.269 1.31-2.323 1.31zm13.565-5.637h-2.943v-4.775h2.943c1.547 0 2.425 1.287 2.425 2.388 0 1.079-.878 2.387-2.425 2.387zm-.054-6.714h-4.957v13.93h2.068v-5.277h2.889c2.294 0 4.548-1.669 4.548-4.326 0-2.659-2.254-4.327-4.548-4.327zm5.689 13.93h2.068v-13.93h-2.068v13.93zm6.902-1.582c-.678 0-1.623-.341-1.623-1.182 0-1.076 1.177-1.489 2.193-1.489.909 0 1.337.197 1.891.467-.161 1.29-1.267 2.204-2.461 2.204zm.249-7.635c-1.498 0-3.049.663-3.692 2.133l1.837.771c.393-.771 1.123-1.022 1.891-1.022 1.069 0 2.157.646 2.176 1.792v.144c-.375-.215-1.178-.537-2.158-.537-1.98 0-3.995 1.092-3.995 3.135 0 1.864 1.623 3.065 3.442 3.065 1.39 0 2.157-.627 2.639-1.362h.072v1.075h1.997v-5.34c0-2.474-1.837-3.854-4.209-3.854zm11.484.305l-2.371 6.04h-.072l-2.46-6.04h-2.23l3.692 8.441-2.105 4.696h2.159L140 26.546h-2.301z"/>
        <path fill="#00BEFF" d="M12.521 9.464c-.327.358-.521.916-.521 1.639v25.795c0 .722.194 1.28.521 1.638l.083.084 13.951-14.45v-.341L12.604 9.379l-.083.085z"/>
        <path fill="#FFB800" d="M31.205 28.99l-4.65-4.819v-.342l4.65-4.818.106.063 5.509 3.242c1.574.926 1.574 2.442 0 3.368l-5.51 3.243-.105.062z"/>
        <path fill="#E12653" d="M31.31 28.927L26.556 24 12.52 38.536c.518.57 1.374.64 2.34.073l16.45-9.682"/>
        <path fill="#06E775" d="M14.861 9.392c-.965-.567-1.82-.497-2.34.072L26.554 24l4.756-4.926-16.449-9.682z"/>
    </g>
</svg>
